<?xml version="1.0" standalone="no"?>
<!DOCTYPE svg PUBLIC "-//W3C//DTD SVG 20010904//EN"
 "http://www.w3.org/TR/2001/REC-SVG-20010904/DTD/svg10.dtd">
<svg version="1.0" xmlns="http://www.w3.org/2000/svg"
 width="94.000000pt" height="94.000000pt" viewBox="0 0 94.000000 94.000000"
 preserveAspectRatio="xMidYMid meet">
<metadata>
Created by potrace 1.14, written by Peter Selinger 2001-2017
</metadata>
<g transform="translate(0.000000,94.000000) scale(0.100000,-0.100000)"
fill="#000000" stroke="none">
<path d="M245 856 c-8 -12 -13 -48 -13 -86 0 -36 -1 -72 -1 -81 -1 -13 -16
-17 -76 -21 -42 -3 -79 -8 -82 -12 -9 -9 -11 -514 -2 -528 10 -17 46 -19 344
-22 273 -3 396 4 420 24 8 7 13 45 14 103 1 50 6 96 12 102 12 12 12 112 -1
120 -6 3 -10 48 -10 99 0 65 -4 97 -13 104 -7 6 -46 12 -85 14 l-72 2 0 84 c0
130 14 123 -221 121 -192 -2 -201 -3 -214 -23z"/>
</g>
</svg>
